inDegrees=no
num_controls=7
num_derivatives=13
num_iterations=89
num_multipliers=7
num_parameters=0
num_slacks=7
num_states=26
objective=0.454461
objective_accelerations=0.046908
objective_balance=0.000916
objective_effort=0.037215
objective_height=0.363785
objective_ligament=0.005638
solver_duration=949.312648
status=Solve_Succeeded
success=true
DataType=double
version=3
OpenSimVersion=4.5
endheader
time	/jointset/ground_pelvis/pelvis_tilt/value	/jointset/ground_pelvis/pelvis_tx/value	/jointset/ground_pelvis/pelvis_ty/value	/jointset/hip_r/hip_flexion_r/value	/jointset/hip_r/hip_adduction_r/value	/jointset/hip_r/hip_rotation_r/value	/jointset/back/lumbar_extension/value	/jointset/patellofemoral_r/patellar_flexion_r/value	/jointset/knee_r/knee_flexion_r/value	/jointset/knee_r/knee_adduction_r/value	/jointset/knee_r/knee_rotation_r/value	/jointset/ankle_r/ankle_angle_r/value	/jointset/subtalar_r/subtalar_angle_r/value	/jointset/ground_pelvis/pelvis_tilt/speed	/jointset/ground_pelvis/pelvis_tx/speed	/jointset/ground_pelvis/pelvis_ty/speed	/jointset/hip_r/hip_flexion_r/speed	/jointset/hip_r/hip_adduction_r/speed	/jointset/hip_r/hip_rotation_r/speed	/jointset/back/lumbar_extension/speed	/jointset/patellofemoral_r/patellar_flexion_r/speed	/jointset/knee_r/knee_flexion_r/speed	/jointset/knee_r/knee_adduction_r/speed	/jointset/knee_r/knee_rotation_r/speed	/jointset/ankle_r/ankle_angle_r/speed	/jointset/subtalar_r/subtalar_angle_r/speed	/forceset/tau_hip_flexion_r	/forceset/tau_hip_adduction_r	/forceset/tau_hip_rotation_r	/forceset/tau_knee_flexion_r	/forceset/tau_ankle_angle_r	/forceset/tau_subtalar_angle_r	/forceset/tau_lumbar_extension	lambda_cid13_p0	lambda_cid14_p0	lambda_cid14_p1	lambda_cid14_p2	lambda_cid14_p3	lambda_cid14_p4	lambda_cid14_p5	/jointset/ground_pelvis/pelvis_tilt/accel	/jointset/ground_pelvis/pelvis_tx/accel	/jointset/ground_pelvis/pelvis_ty/accel	/jointset/hip_r/hip_flexion_r/accel	/jointset/hip_r/hip_adduction_r/accel	/jointset/hip_r/hip_rotation_r/accel	/jointset/back/lumbar_extension/accel	/jointset/patellofemoral_r/patellar_flexion_r/accel	/jointset/knee_r/knee_flexion_r/accel	/jointset/knee_r/knee_adduction_r/accel	/jointset/knee_r/knee_rotation_r/accel	/jointset/ankle_r/ankle_angle_r/accel	/jointset/subtalar_r/subtalar_angle_r/accel	gamma_cid13_p0	gamma_cid14_p0	gamma_cid14_p1	gamma_cid14_p2	gamma_cid14_p3	gamma_cid14_p4	gamma_cid14_p5
0.5	-0.1231667193518961	0.02506129666026579	0.8096432036634325	0.8725737705320218	-0.2171115586661259	-0.1404605803869232	-0.6458992185727286	0.947638808911246	0.9476388089112702	-0.07130635904657864	0.1745323660795223	0.2941565281397019	0.1476678577234491	-0.3369687404550132	-0.1995110408683219	-0.4906306120414555	1.814616745466912	-0.03837359178482878	0.1853846557927731	-0.7358462041901865	1.910176874937666	1.910176874937693	-0.4097684986518518	-0.0001412013776707997	0.5308140825832453	0.1569272671224282	-0.1891190524571321	0.01490659148347007	0.01708282233810187	-0.2951791369713249	0.01073852110456785	-0.003651857223282883	0.2357081541718476	-8.990144336673699	-39.59306103744725	-8.264173847584912	1.449013202134527	-3.840441819923993	-642.3221329481188	57.95016568969505	0.32878111909389	0.5801860202430452	-0.3995731612547365	-1.264885061429143	-0.1707590509941165	-0.5021908148087294	1.80554763759073	-1.347157114536406	-1.347157114536404	0.4416886556246528	-0.04507119439874151	-0.5602095594471532	-0.3349139698610737	-7.072078988944946e-08	5.574262852232526e-08	1.402575066914505e-06	1.237489075656292e-07	-1.722383896264132e-07	-1.284936273770296e-07	9.66072227541179e-07
0.51	-0.1265192636428527	0.02309536832285899	0.8047180402349416	0.8906539580499172	-0.217504246149926	-0.13863290892647	-0.6531668129124064	0.9666703609490148	0.9666703609490234	-0.07538138769060422	0.1745303325557742	0.2994356288871672	0.1492192152308975	-0.3334845588092589	-0.1936578396570101	-0.4942924599657987	1.801176245477606	-0.04017273042297186	0.180250044368588	-0.7175932488542585	1.895890377679822	1.895890377679822	-0.4050924561437571	-0.0002884595732381716	0.5249238633613594	0.1532796324829832	-0.1951855587649877	0.01597813409827331	0.01744776657054782	-0.3001923493298299	0.01006712341029017	-0.003404875013464622	0.2414533566148342	-8.025808876416942	-40.12874230696679	-8.45048114008663	1.706909123041597	-3.802889791865926	-647.1148517522179	58.11424405709973	0.3665855850996257	0.5903609561008473	-0.3330711693627231	-1.420293144422932	-0.185647914393375	-0.5041071934395241	1.847081715300907	-1.505857902998836	-1.505857903003061	0.5025034647785618	-0.002851188441861306	-0.6158063457673444	-0.389058670674495	-5.474715441566408e-08	1.074267549023495e-07	1.64527142580255e-06	5.214797062369272e-07	-2.222816994952946e-07	-1.083728861732821e-07	1.133621021021434e-06
0.52	-0.1298352963377895	0.02118846675447023	0.7997595422149392	0.9085924084325725	-0.2179151563489438	-0.1368535857576974	-0.6602494952519828	0.9855517556398836	0.9855517556398833	-0.07940526762627578	0.1745261668388511	0.304653351793972	0.1507322223000135	-0.3296664212521736	-0.1877056870647122	-0.4972975303436736	1.78626931841862	-0.04201813482787909	0.1757149974557524	-0.6988638041700419	1.880145405558362	1.880145405558334	-0.3995387569805956	-0.0005676400210448476	0.5185385144511541	0.1492571794560033	-0.2012520650728562	0.01704967671308608	0.0178127108031054	-0.3052055616883225	0.009395725716017395	-0.003157892803630383	0.2471985590578091	-7.118656050034978	-40.6625834110179	-8.630441276892302	1.956912796630779	-3.791599655465108	-651.8930233156086	58.29943928472095	0.3955723013600311	0.599976296440239	-0.2682176519610961	-1.558170475365348	-0.1800122043469624	-0.3822779125388985	1.900845507248442	-1.638852087259509	-1.638852087259568	0.6172199866380369	-0.07145564484652686	-0.6592354971110775	-0.409877647368088	-5.051054826636201e-08	1.131077066034163e-07	1.621384120561444e-06	5.482958560174885e-07	-2.242761068670215e-07	-9.887286268353994e-08	1.135485251519647e-06
0.53	-0.1331115514218627	0.01934150509357521	0.7947743168284912	0.9263746147549954	-0.2183445014484308	-0.1351176695671872	-0.6671425891387528	1.004268342407874	1.004268342407854	-0.08337047486068223	0.1745189519620579	0.3098048244980907	0.1522035320084522	-0.3255330484606705	-0.1816770367280502	-0.4996332844759226	1.769935554531749	-0.04383707910025408	0.1714629256692805	-0.6796874150554747	1.862918396504152	1.86291839650413	-0.3934759682321597	-0.0008584285011511048	0.5116802239751443	0.1449777993368948	-0.2072659470548052	0.0181268571555711	0.01809305888983123	-0.3102596795199896	0.008526056056097898	-0.002934040743370473	0.2528632112507102	-6.26947378878904	-41.27409669355038	-8.827428718597268	2.202070505177739	-3.656976862896134	-656.7983339376912	58.47695123903434	0.4299680285722963	0.605705595501201	-0.1991336999459126	-1.706420361413426	-0.1805979462857614	-0.447533590321322	1.936169332885142	-1.802648387591472	-1.802648387590549	0.605030997471242	-0.00519578513233435	-0.7105409866475134	-0.4406941282956263	-4.432188095682624e-08	1.191271721071766e-07	1.580072939509986e-06	5.760074585876027e-07	-2.245103262416651e-07	-8.949485693446219e-08	1.131695755732952e-06
0.54	-0.1363449231259094	0.01755510917469103	0.7897691580195025	0.9439863952353373	-0.2187915884721632	-0.1334244464502666	-0.6738418923905115	1.022805054470692	1.022805054470684	-0.08727420967190058	0.1745093681333738	0.3148854312646899	0.1536313027288769	-0.321089745248098	-0.175592538662544	-0.5012842148517228	1.752184150002253	-0.04556651967674713	0.1671763827379999	-0.6601056771679303	1.84417046452636	1.844170464526345	-0.3872442723427255	-0.001041430402839638	0.5043653269470735	0.1405493818532463	-0.213279829036772	0.01920403759804545	0.01837340697685621	-0.3153137973516197	0.007656386396178399	-0.002710188683133362	0.258527863443596	-5.478574914516478	-41.88409775666386	-9.018243041040801	2.439496266235422	-3.548664096794268	-661.6965574685934	58.67317337442289	0.4575583855738573	0.6111458422090839	-0.1312529006713264	-1.841698603890302	-0.1621114651705944	-0.3891721415007432	1.981915261843918	-1.943036671975597	-1.943036671975551	0.6510014148377458	-0.04989832916282735	-0.7505568075233249	-0.4396851202761866	-3.597348640618081e-08	1.255211635203001e-07	1.519484278838564e-06	6.047097748823285e-07	-2.227971035769825e-07	-8.02518495367579e-08	1.121651073418275e-06
0.55	-0.1395324164330688	0.01582977039445695	0.7847509225876355	0.9614137853639431	-0.2192554152429293	-0.1317743325947665	-0.6803434589030742	1.04114680846675	1.041146808466817	-0.0911151155819452	0.1744983377552306	0.3198906913903011	0.1550142308720237	-0.316362940323609	-0.1694718430716217	-0.5022465960381668	1.733068881574057	-0.04717784798835239	0.1628289916923072	-0.6401559082697955	1.823934503105373	1.823934503105366	-0.3809333168548568	-0.001151542223199298	0.4966172692487956	0.1360227590430889	-0.2190968858138813	0.02026740421057292	0.01859371992066093	-0.3204794621886918	0.006799025469919635	-0.00254601326867139	0.2639838982006852	-4.745873942756409	-42.49810437786306	-9.236837917672343	2.682676883961516	-3.36939660095201	-666.5887354559053	58.8293857685814	0.4871554859050614	0.6129931918990104	-0.06130444714589782	-1.980170755592044	-0.1573348078237271	-0.4601796074671683	2.009265265088343	-2.100744330254944	-2.100744330253847	0.6218727645616478	0.01056854809021832	-0.7973832428742412	-0.4608680909059695	-2.712219619763276e-08	1.313640782222314e-07	1.45114754909466e-06	6.255059421404572e-07	-2.19898489075115e-07	-7.205723384194217e-08	1.110507534130876e-06
0.5600000000000001	-0.142671258902974	0.01416573092500493	0.7797265486000002	0.9786432768496062	-0.2197346935555481	-0.1301682240539877	-0.686643976214397	1.059278829157986	1.059278829158111	-0.094892765907357	0.1744866334902044	0.3248163803405498	0.1563515493411646	-0.3113595777983815	-0.1633326765061317	-0.5025119260052004	1.712604421413536	-0.04865682804669606	0.1583753197920674	-0.619895836920052	1.802223803560601	1.802223803560601	-0.3745931554149833	-0.0011762077810443	0.4884510918747516	0.1314274470521111	-0.2249139425910062	0.02133077082312219	0.01881403286444299	-0.3256451270257685	0.005941664543669041	-0.002381837854170563	0.2694399329577601	-4.070986585001563	-43.11147307915135	-9.449805379220482	2.918661094311204	-3.215917034101011	-671.4882841472373	59.00204880221492	0.512869905721511	0.6148400371226024	0.008157343210755345	-2.111536950355197	-0.1356418145183322	-0.410428312410305	2.043975752165677	-2.237984296732668	-2.237984296732673	0.6568426052387241	-0.032809076659728	-0.8341807426765591	-0.4534229564403869	-1.76674311996016e-08	1.36545700870732e-07	1.373513136463779e-06	6.368147305546695e-07	-2.155774043686256e-07	-6.512068819059265e-08	1.098045366476209e-06
0.5700000000000001	-0.1457587528662391	0.01256312337697923	0.7747029886574032	0.9956615729029489	-0.2202281896551332	-0.1286061456709065	-0.6927404616268305	1.077186728210534	1.07718672821056	-0.09860595530316851	0.174474626932925	0.3296584094791163	0.1576424359244955	-0.3060937080526904	-0.1571901578633868	-0.5020841430190383	1.690838062275075	-0.05003259959758898	0.154118619367731	-0.5993684822188649	1.779140397361014	1.779140397361015	-0.3679417208506771	-0.001240901338427809	0.4798927369916629	0.1267189767666559	-0.2304872368367464	0.02226553635809972	0.01898824770377454	-0.330858516217084	0.005107464680203428	-0.002218863750085194	0.2746366708471166	-3.453191795987205	-43.71127812465707	-9.656111976480462	3.148090479884207	-3.014181814553546	-676.2592479281383	59.18670718573917	0.5402901807236546	0.6137164365319973	0.07746446119223283	-2.241673926187736	-0.1369291005453799	-0.4215809748531366	2.062029831343824	-2.375857755905847	-2.375857755905855	0.6849061788471552	0.004505553337180043	-0.8759937060987303	-0.4839092430922113	-1.065592732397871e-08	1.398961880620898e-07	1.304628385319099e-06	6.412505540538764e-07	-2.115409881905113e-07	-5.774361830773688e-08	1.08178516959439e-06
0.58	-0.1487922191976961	0.0110218927471171	0.7696871816816419	1.012455707658788	-0.220735120325264	-0.1270842923055439	-0.6986306905918017	1.09485732540622	1.094857325406145	-0.1022495078939774	0.1744615344497941	0.3344129888998569	0.1588853677692728	-0.3005540514377745	-0.1510572928734172	-0.500961332637938	1.667772161912758	-0.05134374215531148	0.1503303162470799	-0.57864454742773	1.75476343218806	1.754763432188061	-0.3606657944135503	-0.0013933929512154	0.4709611483096282	0.1218364993414343	-0.2360605310825049	0.0232003018930903	0.0191624625431306	-0.3360719054083979	0.004273264816744015	-0.002055889645976245	0.2798334087364568	-2.891015936658674	-44.3114586926925	-9.856998760141215	3.37039164148549	-2.837334171532739	-681.0556371369934	59.38749857141344	0.5676272795664705	0.6129093065675419	0.1471628221983466	-2.371445195126193	-0.1227160158842975	-0.3167488516733502	2.083291770155236	-2.496696091406391	-2.496696091406454	0.7817409798028567	-0.05036868774038661	-0.908827502465809	-0.4882243843937562	-6.826344910096797e-09	1.408619407046104e-07	1.247138542156452e-06	6.367355395242392e-07	-2.078753031191183e-07	-4.979284244896605e-08	1.060578702091165e-06
0.59	-0.1517690326706549	0.009541886823208588	0.7646860599294346	1.029012903599061	-0.2212546896671429	-0.1255984399275814	-0.7043127679745526	1.112277773588209	1.112277773588183	-0.1058178436037808	0.174446527224703	0.3390764940291819	0.1600788881063689	-0.2947692304475431	-0.144950401235243	-0.4991476633243323	1.643462523162622	-0.05254752187333642	0.1468616132102452	-0.5577510655882133	1.72911381686686	1.729113816866869	-0.3529657754601875	-0.001609272285644678	0.4616870960107538	0.1168624178632693	-0.2413914656939518	0.02411798207641394	0.01925959438451614	-0.341274480037232	0.003415628410463564	-0.001921774138294499	0.2847701392497344	-2.383145483446926	-44.91493258906584	-10.06921492711439	3.592463711808561	-2.592172190037347	-685.7079741540705	59.55552979523755	0.5898399168076148	0.6085615478050012	0.2157631308489521	-2.491378137145905	-0.1156824990832972	-0.3587349899611485	2.095355921079159	-2.630951437241878	-2.630951437240609	0.7696099122883884	-0.007208527687003924	-0.9446375947056512	-0.5025082482535899	-3.058695213614727e-09	1.413553412071863e-07	1.189239657724775e-06	6.300669563151261e-07	-2.036632458762606e-07	-4.276243557060653e-08	1.038746191891441e-06
